<?xml version="1.0" encoding="utf-8"?><!DOCTYPE svg PUBLIC "-//W3C//DTD SVG 1.1//EN" "http://www.w3.org/Graphics/SVG/1.1/DTD/svg11.dtd"><svg version="1.1" id="Contours" xmlns="http://www.w3.org/2000/svg" xmlns:xlink="http://www.w3.org/1999/xlink" x="0px" y="0px" width="1937.262695px" height="1937.262695px" viewBox="0.000001 0.000001 1937.262695 393.460175" enable-background="new 0 0 1937.262695 1937.262695" xml:space="preserve" stroke="black" fill="none" stroke-linecap='round' stroke-linejoin='round'><path class="selected"  fill="#000000" opacity="1.000000" stroke="none" 
 	d="
M932.125726 247.538039 C929.401056 256.929427 927.778680 266.413161 924.273309 275.140578 C917.092035 293.020064 908.188897 309.959975 895.237664 324.670730 C885.918023 335.256484 875.783685 344.775374 864.501031 353.091933 C850.869806 363.139632 835.397699 369.714339 819.234857 374.064254 C807.176141 377.309615 794.662408 379.312728 781.951776 378.300582 C764.638849 376.921889 747.542474 374.108107 732.006463 366.128615 C718.925897 359.410201 706.686395 351.334029 695.815484 341.014480 C680.076165 326.073623 668.076776 308.723372 660.082208 288.816298 C655.601251 277.658187 652.482232 265.808028 650.096185 253.997664 C648.034539 243.793288 647.188104 233.216597 647.003167 222.783278 C646.421746 189.986800 654.060052 159.088561 670.311090 130.510558 C672.453424 126.743178 671.709893 124.344008 668.937982 121.865081 C662.587762 116.186232 658.339593 109.130935 657.065362 100.815291 C655.959222 93.596450 658.540094 86.732116 662.185846 80.566985 C670.905389 65.821364 684.738519 59.724395 701.159662 59.452697 C709.514276 59.314452 717.435907 62.323836 724.326165 67.300826 C727.501336 69.594420 730.654962 70.038878 734.096185 68.281112 C747.003167 61.688247 760.569329 56.553252 774.837579 54.558837 C784.865289 53.157180 795.255792 54.551619 805.468072 54.210784 C814.888482 53.896377 824.014154 55.410567 832.775872 58.397429 C845.369622 62.690627 857.809991 67.529967 868.648858 75.575454 C872.867974 78.707213 876.932428 82.054152 881.231683 85.068694 C883.994683 87.006148 886.691095 86.554717 889.420160 84.327514 C896.152887 78.832869 904.260919 75.525573 912.656060 75.547011 C925.183038 75.578994 936.582879 79.117843 945.182916 89.780806 C951.157708 97.188903 953.270929 104.958312 954.124932 114.224837 C955.864984 133.105697 947.332818 145.776397 932.291009 155.237639 C927.426446 158.297454 929.656732 162.717513 930.384210 166.048705 C932.997613 178.014327 936.514398 189.789840 935.871820 202.233169 C935.223199 214.791030 934.601068 227.350844 933.825799 239.901046 C933.672418 242.383773 932.875726 244.826735 932.125726 247.538039 M812.375726 352.288039 C823.681695 348.929519 834.391290 344.271499 844.531366 338.192305 C858.680230 329.709701 870.013604 318.222854 879.807672 305.203566 C887.765008 294.625899 893.996942 283.006148 898.921075 270.661055 C905.348993 254.545577 909.613458 237.906539 910.788324 220.631026 C912.085321 201.559890 909.793817 182.840865 903.931573 164.543715 C899.121942 149.531920 892.813714 135.097457 883.321588 122.686980 C875.949456 113.048232 866.861810 104.456557 857.470208 96.689010 C843.114373 84.815734 825.857599 78.420409 807.486993 76.562377 C796.738275 75.475249 785.757135 75.820220 774.819391 78.105666 C754.656366 82.318694 737.179681 91.564544 721.964593 104.911010 C706.947686 118.083663 695.060479 133.813353 686.796441 152.242873 C679.763849 167.926177 673.565850 184.062514 672.239373 201.070144 C670.944940 217.667830 670.381952 234.626357 673.935846 251.178725 C677.730340 268.852157 684.648858 285.400100 694.010736 300.813582 C702.593866 314.945052 714.056878 326.554397 727.395379 336.303573 C738.476983 344.403212 751.211847 348.664901 764.241693 352.335463 C770.824090 354.189650 772.623590 353.327559 772.847955 346.863418 C773.276910 334.510146 773.647271 322.152785 773.835443 309.793990 C773.943719 302.681044 775.575006 294.746718 773.004693 288.669173 C770.299310 282.272414 763.414361 277.637191 758.333062 272.253554 C755.146417 268.877334 752.611810 265.218856 754.397577 260.317885 C756.052850 255.775008 760.525995 253.187179 766.360711 253.310225 C778.718805 253.570784 791.076593 253.894210 803.428888 254.345473 C805.575616 254.423903 807.784539 255.018813 809.809442 255.785354 C815.036309 257.764052 817.451165 263.394027 815.908075 268.821425 C813.896539 275.896163 808.849786 280.407638 803.095330 284.244796 C798.328668 287.423263 795.520135 291.103713 795.749932 297.344832 C796.184869 309.157088 795.875726 320.996779 795.875726 332.825057 C795.875726 338.436812 795.591790 344.072005 796.051629 349.645827 C796.186700 351.282699 798.430413 354.044234 799.709649 354.045333 C803.597833 354.048690 807.486993 352.954696 812.375726 352.288039 M915.375726 96.288039 C911.659906 97.337203 907.639642 97.819869 904.318719 99.604033 C901.340997 101.203795 900.005670 103.901534 902.675714 107.793517 C907.669610 115.072768 911.925714 122.857238 916.519830 130.412566 C917.253839 131.619567 918.032220 132.838378 918.993097 133.860900 C921.439080 136.463668 924.096429 136.196608 926.081720 133.500457 C931.033624 126.775206 934.173516 119.271666 931.763543 110.877486 C929.596185 103.328490 923.898980 96.340011 915.375726 96.288039 M697.375726 95.288024 C700.653375 92.343703 703.994745 89.465453 707.166009 86.410674 C708.004998 85.602477 708.870050 84.154830 708.700494 83.178420 C708.566522 82.407088 706.887140 81.419921 705.855584 81.372847 C701.476983 81.173049 696.697076 80.166518 692.776239 81.519454 C684.384576 84.415099 678.381768 91.696074 680.884271 102.184798 C681.994867 106.839827 684.935357 107.645934 688.389703 104.262069 C691.245172 101.464812 694.049005 98.614715 697.375726 95.288024 z"/><path class="selected"  fill="#000000" opacity="1.000000" stroke="none" 
 	d="
M160.875726 45.288039 C200.533120 45.288039 239.690973 45.165847 278.847772 45.316985 C336.029931 45.537696 393.211297 45.947455 450.392907 46.296142 C458.634393 46.346396 465.067224 50.025573 466.312829 56.467650 C466.986871 59.953521 465.886712 63.910323 465.062616 67.535521 C461.778924 81.980712 458.310327 96.384093 454.867547 110.792785 C452.912957 118.973067 450.890252 127.137206 448.872125 135.302154 C446.220117 146.031737 443.536889 156.753615 440.876977 167.481261 C437.205072 182.290664 433.460229 197.082656 429.909356 211.921065 C428.051934 219.683028 426.527642 227.525161 424.880304 235.336867 C423.540918 241.688216 413.016534 250.356368 406.511895 250.273360 C383.321679 249.977462 360.132318 249.615828 336.942468 249.289596 C312.753045 248.949325 288.563195 248.642531 264.374078 248.281478 C244.183160 247.980056 223.993219 247.612777 203.802606 247.290358 C182.279290 246.946700 160.754693 246.671706 139.233148 246.242476 C135.272638 246.163466 133.309930 247.547255 131.741067 251.424819 C126.083612 265.407576 119.931009 279.192000 113.850595 293.000808 C111.118860 299.204726 108.319192 305.396468 105.160028 311.387923 C103.247033 315.015944 97.142991 316.665603 94.056154 314.968459 C90.614793 313.076400 88.981446 308.378798 90.682138 304.036269 C94.443208 294.432967 98.401391 284.906630 102.308564 275.360885 C107.148744 263.535781 111.668344 251.560500 117.035745 239.978805 C119.422921 234.827804 116.683480 230.780349 115.554284 226.753859 C108.703401 202.324935 101.130868 178.099166 93.890496 153.778441 C88.279893 134.932158 82.820176 116.041015 77.260247 97.179580 C72.489793 80.996337 67.550203 64.861693 62.932489 48.635245 C60.927652 41.590362 59.826616 34.286414 57.780183 27.255843 C56.308435 22.199637 52.994226 17.865500 47.401216 17.465255 C39.447908 16.896094 31.390481 16.879271 23.451642 17.530219 C20.885701 17.740615 18.350362 20.576156 16.157113 22.597266 C11.978475 26.447928 6.569404 27.640540 3.166419 25.078734 C-0.496426 22.321280 -1.051627 15.420318 1.868139 10.767257 C5.264800 5.354194 10.836402 2.414550 16.406369 1.543578 C30.870973 -0.718217 45.450422 -0.636750 59.911561 2.739913 C69.376550 4.949988 71.822679 12.250411 73.894677 20.163115 C75.465753 26.162871 77.247026 32.107291 78.863046 38.095687 C80.040384 42.458449 82.664460 44.449134 87.314431 44.345176 C96.141259 44.147849 104.977426 44.174483 113.806482 44.313086 C129.330835 44.556792 144.852777 44.954703 160.875726 45.288039 M109.875718 144.788039 C112.875726 156.040831 115.684213 167.349090 118.922708 178.532821 C123.267175 193.535872 128.040277 208.414534 132.417047 223.408553 C133.654992 227.649459 136.151178 229.270217 140.358865 229.315352 C166.376977 229.594344 192.394754 229.917678 218.411554 230.300704 C236.600030 230.568435 254.785577 231.059523 272.974511 231.265822 C308.986963 231.674300 345.000818 231.963088 381.014245 232.280135 C387.344415 232.335860 393.697412 231.965835 399.998834 232.395247 C404.612390 232.709639 407.898645 231.439864 408.852655 227.435592 C412.575799 211.808425 416.215295 196.161300 419.874292 180.518874 C425.239129 157.584014 430.591485 134.646239 435.954034 111.710830 C439.256555 97.586242 442.619470 83.475493 445.848809 69.334212 C447.025842 64.179824 446.195947 63.313064 440.882440 63.287902 C370.550317 62.954772 300.218469 62.549758 229.886010 62.314589 C186.904687 62.170867 143.922479 62.288039 100.940660 62.288039 C97.551683 62.288039 94.125505 61.980681 90.785470 62.384993 C88.099191 62.710174 86.228830 63.697539 87.497583 67.582152 C90.957917 78.176848 93.756524 88.986403 96.884576 99.691176 C101.182534 114.399596 105.542390 129.089950 109.875718 144.788039 z"/><path class="selected"  fill="#000000" opacity="1.000000" stroke="none" 
 	d="
M1858.875726 353.288039 C1814.370599 351.651168 1780.118890 319.590804 1780.207025 276.599990 C1780.291864 235.192946 1814.380975 198.814071 1863.238519 200.632735 C1899.024774 201.964827 1941.539300 230.548446 1936.916009 284.682723 C1933.819940 320.934096 1901.188836 351.541793 1858.875726 353.288039 M1917.875726 274.788039 C1917.542352 272.260299 1917.410394 269.686324 1916.843011 267.212294 C1913.222162 251.426253 1905.013055 238.693343 1891.107904 230.115218 C1884.037591 225.753615 1876.369256 223.305983 1867.913690 222.024550 C1853.724115 219.874129 1840.609979 222.272048 1828.647088 229.282088 C1815.788079 236.817275 1806.800287 247.996474 1802.851312 262.782119 C1800.103631 273.070022 1800.217523 283.271895 1803.495477 293.363601 C1806.431268 302.401565 1811.255365 310.108077 1818.504022 316.608382 C1831.209466 328.002028 1845.614740 333.450484 1862.711419 332.361648 C1874.559930 331.607070 1884.835077 327.392379 1894.290399 320.431868 C1909.394403 309.313552 1916.797479 294.252669 1917.875726 274.788039 z"/><path class="selected"  fill="#000000" opacity="1.000000" stroke="none" 
 	d="
M1414.875726 248.288039 C1420.056268 240.274093 1424.393060 231.956099 1430.610589 225.430221 C1440.524408 215.024764 1453.154901 208.604384 1467.540887 206.339095 C1473.712030 205.367415 1480.001092 204.186751 1486.185174 204.426711 C1507.986566 205.272658 1527.113031 212.947463 1541.552240 229.679458 C1551.122186 240.769179 1556.957269 253.613112 1558.138177 268.813216 C1559.122552 281.483870 1557.637689 293.522750 1552.580926 304.776961 C1548.031244 314.902419 1540.627923 323.268996 1531.823236 330.350234 C1522.615838 337.755141 1512.224969 342.613021 1500.795648 344.668502 C1492.079583 346.235976 1483.438348 347.584639 1474.103631 345.718459 C1464.952386 343.888930 1455.904657 342.147689 1447.904657 337.622298 C1428.557245 326.677871 1415.216546 311.032332 1410.757074 288.469527 C1408.157342 275.315352 1409.378900 262.788131 1413.891595 250.380446 C1414.100457 249.806319 1414.542352 249.316939 1414.875726 248.288039 M1452.375726 316.288039 C1466.037591 326.638076 1481.651849 328.306685 1497.615472 324.801223 C1512.012445 321.639785 1523.440667 313.402480 1531.322015 300.441054 C1540.775384 284.894668 1540.706048 268.834517 1533.033441 253.207137 C1522.552972 231.860579 1495.504022 219.704482 1472.579461 225.375228 C1454.304803 229.895736 1440.125238 240.025039 1432.918695 258.097884 C1427.278070 272.243270 1429.113397 285.895064 1436.188470 299.192061 C1439.910028 306.186263 1445.212396 311.568709 1452.375726 316.288039 z"/><path class="selected"  fill="#000000" opacity="1.000000" stroke="none" 
 	d="
M1621.625726 212.038039 C1629.756219 203.191787 1638.415277 195.544570 1649.103509 190.615218 C1657.961053 186.530196 1667.284784 184.221206 1677.054437 183.202468 C1696.155023 181.210769 1713.334100 186.824752 1729.272088 196.400466 C1740.699823 203.266494 1748.752557 213.750472 1754.565423 225.654982 C1757.241204 231.134505 1754.363763 236.627761 1749.661859 239.396926 C1745.189447 242.031020 1737.878534 238.776015 1734.998285 233.551070 C1729.926751 224.351119 1722.146112 218.068404 1713.837762 212.338698 C1697.158441 200.836104 1679.266839 200.604659 1660.957757 207.758315 C1641.975213 215.175094 1630.100824 229.662246 1625.251580 248.782363 C1620.732415 266.601241 1624.461297 283.741042 1635.843866 298.806197 C1643.968499 309.559523 1654.492181 316.383681 1667.336053 320.412490 C1678.858270 324.026717 1690.210931 324.029982 1701.343988 320.168532 C1717.312371 314.629867 1730.000116 305.011092 1736.999749 288.899886 C1738.233514 286.060256 1740.648553 282.844710 1743.315912 281.754134 C1746.293328 280.536727 1750.831414 280.373244 1753.516107 281.864699 C1757.339593 283.988845 1759.055413 288.526595 1757.442254 293.164748 C1753.193475 305.381820 1745.373651 315.295119 1735.823480 323.631759 C1727.459588 330.932845 1717.844354 336.623366 1706.989495 339.561232 C1701.827630 340.958266 1696.427118 341.535079 1691.104486 342.263045 C1678.135614 344.036788 1665.586663 342.114058 1653.527093 337.250319 C1640.966546 332.184462 1630.541009 324.384627 1621.685907 313.896743 C1613.545404 304.255172 1608.294671 293.583358 1605.627557 281.490767 C1603.400872 271.394393 1603.359613 261.294661 1604.670037 250.928786 C1606.183709 238.955062 1610.624383 228.433333 1616.898187 218.443557 C1618.244500 216.299910 1619.875726 214.335219 1621.625726 212.038039 z"/><path class="selected"  fill="#000000" opacity="1.000000" stroke="none" 
 	d="
M1336.875726 297.288039 C1339.209100 286.923079 1341.646478 277.081252 1343.847772 267.186934 C1346.278314 256.262160 1344.703851 245.613540 1340.846063 235.281173 C1336.280633 223.052962 1327.724603 215.347335 1314.609857 213.309432 C1301.235223 211.231124 1289.394891 215.798751 1278.277581 222.499465 C1271.685296 226.472793 1265.801751 231.667678 1259.077264 235.363204 C1252.149774 239.170394 1253.884515 245.191298 1253.994378 250.728682 C1254.088128 255.463027 1255.342889 260.162673 1255.851312 264.902633 C1257.581659 281.035842 1259.355584 297.167067 1260.795892 313.327285 C1261.296869 318.948317 1261.250726 324.684432 1260.757318 330.306838 C1260.360345 334.830489 1254.963006 337.715560 1249.127435 337.288039 C1244.517083 336.950301 1241.347284 333.210463 1240.891595 327.319289 C1240.165643 317.935012 1239.652459 308.533400 1238.850213 299.156142 C1237.613641 284.702742 1236.183465 270.266036 1234.885858 255.817702 C1234.162835 247.767043 1233.621453 239.699599 1232.855218 231.653335 C1231.941888 222.061019 1230.594598 212.501632 1229.968011 202.893203 C1229.499749 195.712783 1233.916131 190.431655 1239.568963 190.288039 C1245.253289 190.143630 1250.585809 196.023360 1250.854608 202.872085 C1250.978753 206.033339 1250.844964 209.203994 1250.894647 212.369307 C1250.909417 213.314315 1251.149652 214.255813 1251.286615 215.198897 C1252.091180 214.787032 1252.935907 214.437850 1253.693963 213.953261 C1259.230706 210.413466 1264.460321 206.236464 1270.347039 203.440017 C1277.973748 199.817153 1285.965570 196.756118 1294.076043 194.404799 C1308.528558 190.214980 1322.647454 191.948592 1335.771234 199.350387 C1345.416864 204.790481 1352.303582 212.612441 1357.296380 222.858504 C1363.386590 235.356887 1365.171624 248.343154 1364.752801 261.725051 C1364.178094 280.088973 1359.460321 297.607222 1351.430902 314.145614 C1349.415399 318.296828 1346.417718 321.589095 1341.022821 321.323226 C1335.954461 321.073470 1330.791864 315.615035 1331.995843 310.747603 C1333.096551 306.297683 1335.209100 302.097976 1336.875726 297.288039 z"/><path class="selected"  fill="#000000" opacity="1.000000" stroke="none" 
 	d="
M984.875726 314.288039 C982.209100 304.728866 979.421807 295.703109 976.901361 286.603408 C971.963861 268.777511 972.421624 250.484572 973.028802 232.288619 C973.341119 222.930434 977.347711 214.776565 985.914422 209.805159 C991.408502 206.616866 997.248162 208.055159 1000.189203 212.109603 C1003.183099 216.236922 1002.212213 222.165175 998.310907 226.454574 C996.112970 228.871138 992.128778 230.304641 992.917169 234.666335 C993.074029 235.533980 993.586786 236.669906 994.266961 237.001021 C994.775750 237.248702 995.979608 236.579055 996.598199 236.015273 C1009.000360 224.712630 1024.000238 218.400008 1039.671014 213.253707 C1052.593744 209.009841 1065.798333 208.583938 1078.526483 212.523421 C1090.772454 216.313643 1099.878656 224.706405 1104.297479 237.246901 C1106.441400 243.331710 1104.471551 248.083205 1099.126580 250.537185 C1094.788202 252.529006 1090.153070 250.641250 1086.806512 245.752425 C1083.125604 240.375411 1079.728265 234.735244 1073.087030 232.257033 C1063.929315 228.839888 1054.871576 229.664809 1045.736444 232.273391 C1028.602411 237.166182 1014.439447 247.355544 1000.152459 257.422164 C992.770990 262.623153 992.912286 269.588302 995.051995 276.874007 C999.451043 291.852401 1003.750299 306.895400 1009.099481 321.543380 C1011.510125 328.144545 1015.761224 334.330459 1020.233514 339.848861 C1024.608148 345.246779 1023.045770 351.694655 1018.637323 355.078963 C1015.516595 357.474654 1008.133905 356.804885 1004.804437 352.475448 C1000.252984 346.556838 996.260614 340.112624 992.769830 333.502273 C989.620172 327.537887 987.467889 321.046828 984.875726 314.288039 z"/><path class="selected"  fill="#000000" opacity="1.000000" stroke="none" 
 	d="
M337.625726 344.038039 C335.514062 344.621383 333.654168 345.231490 331.790429 345.243575 C318.792566 345.327742 305.792871 345.397017 292.795831 345.264693 C267.936212 345.011641 243.077203 344.671615 218.219568 344.268172 C204.524240 344.045913 190.830926 343.665877 177.139154 343.271712 C168.609124 343.026137 160.083352 342.629348 151.556314 342.284682 C147.279733 342.111861 143.109552 338.233046 142.875726 334.248366 C142.633874 330.126998 145.179193 326.579055 150.054193 326.424056 C162.763559 326.019912 175.494317 326.288039 188.216531 326.288039 C194.715722 326.288039 201.216256 326.202163 207.713830 326.304427 C225.907541 326.590682 244.099450 326.990401 262.293237 327.270125 C269.404962 327.379470 276.527246 327.079055 283.631646 327.331679 C298.306421 327.853530 312.972192 328.627669 327.642480 329.278762 C329.196374 329.347732 330.757501 329.332015 332.312677 329.279555 C336.484033 329.138869 339.238672 331.011367 340.905847 334.846755 C342.644860 338.847274 339.953943 341.174270 337.625726 344.038039 z"/><path class="selected"  fill="#000000" opacity="1.000000" stroke="none" 
 	d="
M344.875726 338.288039 C347.492883 326.436446 355.949792 321.086532 365.926385 317.286361 C386.768853 309.347274 413.351922 325.261397 417.258050 347.060988 C418.996881 356.765029 417.325677 364.870131 413.498864 373.044112 C409.446435 381.699996 402.173639 386.946883 393.094018 389.528945 C378.738977 393.611190 365.938012 390.941359 354.715631 380.711715 C345.594415 372.397414 341.090722 362.287337 341.987970 350.042586 C342.266565 346.240920 343.875726 342.536818 344.875726 338.288039 M366.375726 336.288039 C356.619683 344.397994 357.197290 354.654799 362.027765 362.277511 C366.930200 370.013839 374.110589 374.184951 384.066461 373.443374 C394.460199 372.669173 402.835199 361.437972 400.505059 351.212905 C399.141595 345.229812 395.855218 340.949508 391.455987 337.528335 C383.776849 331.556411 374.949945 330.917739 366.375726 336.288039 z"/><path class="selected"  fill="#000000" opacity="1.000000" stroke="none" 
 	d="
M124.125726 326.038039 C135.180886 333.388228 141.200006 342.836226 142.082727 356.275405 C143.314981 375.035994 130.022317 387.336776 115.366632 391.984328 C99.494600 397.017562 80.917924 388.740828 71.629495 373.787368 C59.309976 353.954146 71.402536 326.887191 94.416017 321.745284 C103.889917 319.628524 114.769723 319.362471 124.125726 326.038039 M124.875726 359.788039 C124.411020 356.656661 124.650171 353.191176 123.351602 350.455642 C119.206292 341.723159 111.955438 337.676803 102.246248 338.297683 C95.621240 338.721389 90.023072 341.588759 87.008393 347.410689 C83.231515 354.704635 84.251664 362.064010 89.599717 368.481826 C99.089776 379.870162 119.162698 377.188094 124.875726 359.788039 z"/><path class="selected"  fill="#000000" opacity="1.000000" stroke="none" 
 	d="
M1165.875726 295.288039 C1169.124994 311.932631 1173.885370 327.613173 1179.797113 342.990035 C1182.544305 350.135909 1179.905145 356.589034 1174.397699 358.266036 C1168.583612 360.036391 1162.267083 356.258651 1159.881097 349.520400 C1154.102655 333.202132 1150.360833 316.388656 1146.624383 299.493300 C1142.519891 280.933791 1141.178338 262.322371 1142.055291 243.549148 C1142.543084 233.106307 1144.936517 222.790694 1151.570794 214.070601 C1155.365838 209.082229 1162.334222 207.712203 1166.801751 211.235244 C1170.323968 214.012862 1171.661126 219.716323 1168.083123 225.354812 C1162.463006 234.211440 1162.071893 244.198897 1161.130243 253.907119 C1160.474847 260.665450 1162.075311 267.671889 1162.913568 274.537551 C1163.740228 281.307326 1164.875848 288.039382 1165.875726 295.288039 z"/><path class="selected"  fill="#000000" opacity="1.000000" stroke="none" 
 	d="
M1139.125726 177.038039 C1138.178460 170.575332 1142.410882 166.224395 1144.942865 161.315474 C1152.172967 147.297927 1159.653070 133.407500 1167.194818 119.554122 C1168.697015 116.794661 1170.549920 114.016326 1172.872186 111.958861 C1177.046624 108.260253 1182.219354 108.401473 1185.738885 111.651153 C1190.402215 115.956771 1190.887445 121.397658 1187.693963 127.032531 C1178.984979 142.399520 1170.511956 157.900100 1161.836908 173.286513 C1160.219232 176.155700 1158.404168 179.032790 1156.149774 181.401229 C1149.460687 188.428420 1141.984246 186.504043 1139.125726 177.038039 z"/><path class="selected"  fill="#000000" opacity="1.000000" stroke="none" 
 	d="
M733.125726 189.538039 C737.602960 181.640700 744.534600 180.009047 750.180536 184.984298 C753.827081 188.197677 754.711724 191.772994 752.662408 195.910232 C750.954034 199.359054 743.450677 201.636489 739.877923 199.663497 C736.108148 197.581679 732.098504 195.270430 733.125726 189.538039 z"/><path class="selected"  fill="#000000" opacity="1.000000" stroke="none" 
 	d="
M844.875726 195.288039 C848.670221 188.495040 853.009332 185.873824 859.163995 188.263595 C863.294976 189.867537 865.019952 192.835036 864.884088 197.128768 C864.761407 201.006118 863.357476 203.444259 859.178338 204.624862 C851.396661 206.823104 845.367913 203.359755 844.875726 195.288039 z"/></svg>